<?xml version="1.0" encoding="utf-8"?>
<svg width="2490" height="2500" preserveAspectRatio="xMinYMin meet" viewBox="0 0 256.5 256.5" xmlns="http://www.w3.org/2000/svg">
  <defs>
    <linearGradient x1="49.998%" y1=".706%" x2="49.998%" y2="96.99%" id="a">
      <stop stop-color="#86BBE5" offset="0"/>
      <stop stop-color="#1072BA" offset="1"/>
    </linearGradient>
  </defs>
  <g>
    <path d="M 127.457 0.042 C 127.457 0.042 202.777 -3.338 242.71 72.37 L 121.048 72.37 C 121.048 72.37 98.088 71.63 78.475 99.484 C 72.841 111.175 66.785 123.218 73.581 146.952 C 63.791 130.366 21.606 56.912 21.606 56.912 C 21.606 56.912 51.361 3.035 127.456 0.042 Z" fill="#EF3F36"/>
    <path d="M 238.801 192.236 C 238.801 192.236 204.045 259.176 118.548 255.866 C 129.112 237.59 179.396 150.508 179.396 150.508 C 179.396 150.508 191.545 131 177.213 100.083 C 169.923 89.343 162.493 78.11 138.549 72.123 C 157.811 71.948 242.499 72.123 242.499 72.123 C 242.499 72.123 274.225 124.838 238.801 192.236 Z" fill="#FCD900"/>
    <path d="M 16.641 192.764 C 16.641 192.764 -23.96 129.204 21.676 56.806 C 32.205 75.082 82.489 162.164 82.489 162.164 C 82.489 162.164 93.335 182.447 127.245 185.474 C 140.169 184.524 153.62 183.714 170.805 166.002 C 161.331 182.764 118.828 256.007 118.828 256.007 C 118.828 256.007 57.276 257.134 16.64 192.764 Z" fill="#61BC5B"/>
    <path d="M 118.513 255.5 L 135.626 184.088 C 135.626 184.088 154.43 182.608 170.206 165.319 C 160.416 182.539 118.513 255.5 118.513 255.5 Z" fill="#5AB055"/>
    <path d="M 70.13 129.063 C 70.13 97.583 95.66 72.053 127.14 72.053 C 158.62 72.053 184.15 97.583 184.15 129.063 C 184.15 160.544 158.62 186.073 127.14 186.073 C 95.66 186.038 70.13 160.544 70.13 129.063 Z" fill="#FFF"/>
    <path d="M 79.672 129.063 C 79.672 102.865 100.906 81.596 127.14 81.596 C 153.338 81.596 174.607 102.83 174.607 129.063 C 174.607 155.262 153.374 176.531 127.14 176.531 C 100.941 176.531 79.672 155.262 79.672 129.063 Z" fill="url(#a)"/>
    <path d="M 242.463 72.159 L 172.001 92.829 C 172.001 92.829 161.367 77.229 138.514 72.159 C 158.339 72.053 242.463 72.159 242.463 72.159 Z" fill="#EACA05"/>
    <path d="M 72.208 144.346 C 62.312 127.197 21.606 56.912 21.606 56.912 L 73.792 108.534 C 73.792 108.534 68.439 119.556 70.447 135.331 L 72.207 144.346 Z" fill="#DF3A32"/>
  </g>
</svg>